<svg xmlns="http://www.w3.org/2000/svg" viewBox="0 0 49.4 49.4"><defs><style>.cls-1{fill:#3bb44b;}.cls-2{fill:#fff;}</style></defs><g id="Layer_2" data-name="Layer 2"><g id="Layer_1-2" data-name="Layer 1"><rect class="cls-1" width="49.4" height="49.4"/><path class="cls-2" d="M46.37,24.82a2.53,2.53,0,0,1-1.63,2.25L26.63,33.91a.84.84,0,0,1-.9-.2.87.87,0,0,1-.26-.9l1.88-4.22a.85.85,0,0,1,.47-.46l9.72-3.74-8.07-4-6,13.18A2.6,2.6,0,0,1,22,34.89a2.75,2.75,0,0,1-.85.14A2.63,2.63,0,0,1,20,34.77L4.44,27A2.58,2.58,0,0,1,3,24.58a2.54,2.54,0,0,1,1.63-2.25l18.06-7.27a.82.82,0,0,1,.92.21.84.84,0,0,1,.15.93l-1.86,4.4a1,1,0,0,1-.5.37l-9.64,4L19.93,29l6-13.18a2.49,2.49,0,0,1,1.47-1.34,2.57,2.57,0,0,1,2,.12L45,22.43A2.54,2.54,0,0,1,46.37,24.82Z"/></g></g></svg>