<svg width="180" height="180" viewBox="0 0 180 180" fill="none" xmlns="http://www.w3.org/2000/svg">
<path d="M168.26 90.07C168.178 91.8583 167.575 93.5834 166.524 95.0333C165.474 96.4831 164.023 97.5943 162.35 98.23L96.62 123C96.0667 123.213 95.4628 123.257 94.8843 123.128C94.3059 122.998 93.7789 122.699 93.37 122.27C92.9068 121.883 92.5658 121.37 92.3883 120.793C92.2108 120.216 92.2044 119.6 92.37 119.02L99.21 103.7C99.3671 103.324 99.5973 102.982 99.8875 102.695C100.178 102.409 100.522 102.183 100.9 102.03L136.18 88.47L106.94 73.88L85.14 121.71C84.409 123.322 83.2287 124.688 81.7406 125.646C80.2525 126.604 78.5197 127.112 76.75 127.11C75.3253 127.09 73.9237 126.748 72.65 126.11L16.11 97.88C14.4986 97.0874 13.1541 95.8411 12.2419 94.2943C11.3296 92.7476 10.8895 90.9679 10.9756 89.1742C11.0616 87.3805 11.6702 85.6512 12.7263 84.1989C13.7825 82.7465 15.2401 81.6347 16.92 81L82.44 54.65C83.0058 54.4183 83.6288 54.365 84.2258 54.4973C84.8227 54.6295 85.365 54.941 85.78 55.39C86.2043 55.8331 86.4827 56.3956 86.5774 57.0018C86.6722 57.6079 86.5789 58.2286 86.31 58.78L79.58 74.78C79.1428 75.4225 78.507 75.9038 77.77 76.15L42.77 90.64L72.31 105.41L94.11 57.59C94.6276 56.4614 95.3672 55.4486 96.2847 54.6119C97.2021 53.7752 98.2786 53.1318 99.45 52.72C100.619 52.313 101.857 52.1415 103.093 52.2153C104.329 52.2891 105.538 52.6068 106.65 53.15L163.17 81.43C164.762 82.2254 166.089 83.4644 166.992 84.9975C167.895 86.5306 168.336 88.2923 168.26 90.07Z" fill="white"/>
</svg>
