<svg xmlns="http://www.w3.org/2000/svg" viewBox="0 0 179.26 179.26"><defs><style>.cls-1{fill:#3b61ad;}.cls-2{fill:#fff;}</style></defs><g id="Layer_2" data-name="Layer 2"><g id="Layer_1-2" data-name="Layer 1"><rect class="cls-1" width="179.26" height="179.26"/><path class="cls-2" d="M168.26,90.07a9.18,9.18,0,0,1-5.91,8.16L96.62,123a3,3,0,0,1-3.25-.73,3.12,3.12,0,0,1-1-3.25l6.84-15.32a3.08,3.08,0,0,1,1.69-1.67l35.28-13.56L106.94,73.88l-21.8,47.83a9.2,9.2,0,0,1-8.39,5.4,9.44,9.44,0,0,1-4.1-1L16.11,97.88A9.21,9.21,0,0,1,16.92,81L82.44,54.65a3,3,0,0,1,3.34.74,3,3,0,0,1,.53,3.39l-6.73,16a3.55,3.55,0,0,1-1.81,1.37l-35,14.49,29.54,14.77,21.8-47.82a9.25,9.25,0,0,1,5.34-4.87,9.38,9.38,0,0,1,7.2.43l56.52,28.28A9.22,9.22,0,0,1,168.26,90.07Z"/></g></g></svg>